<svg t="1629014563325" class="icon" viewBox="0 0 1024 1024" version="1.1" xmlns="http://www.w3.org/2000/svg" p-id="754" width="500" height="500"><path d="M23.62981472 269.17232913c-8.14453058 1.96072033-15.83658723 9.04947843-18.70225539 17.49565826-2.41319424 6.78710881-2.56401887 20.66297572-2.26236962 184.60935974l0.30164928 177.21895234 3.61979137 6.48545953c2.71484352 4.52473921 5.88216097 7.39040737 11.31184802 10.1052509l7.54123201 3.77061601H514.56401887l3.46896675-3.77061601c2.11154496-2.2623696 3.46896672-5.42968706 3.31814208-8.29535521-0.15082465-4.67556385-18.70225539-41.92924999-22.02039748-44.04079497-0.90494785-0.60329857-96.67859443-1.20659712-212.96439212-1.20659712H75.06101706l-5.12803776-3.46896673c-11.01019874-7.39040737-10.40690018 1.05577248-10.10525093-141.62433724 0.45247391-125.63692537 0.45247391-127.74847034 3.46896674-131.82073562 1.65907104-2.2623696 5.42968706-5.2788624 8.29535522-6.78710882 4.97721313-2.71484352 14.93163939-2.86566816 259.41838131-2.86566815h254.29034355l19.00390467-11.16102339c28.95833093-17.04318435 56.10676619-26.84678597 87.93076529-31.82399911 13.12174371-2.11154496 22.32204677-2.41319424 43.73914569-1.80989568 48.41470955 1.50824641 73.45159984 9.04947843 127.29599641 38.76193256l7.99370594 4.52473922h38.00780936c36.49956294 0 38.00780935 0.15082465 43.88997032 3.46896671 11.31184801 6.33463489 11.31184801 6.18381024 11.31184802 73.45159983 0 55.20181835 0.30164928 60.93315467 3.31814209 76.92056656 4.52473921 23.22699461 4.82638849 67.72026349 0.60329857 88.23241457-1.50824641 7.39040737-3.31814209 17.79730756-3.92144066 23.07616996-0.7541232 5.2788624-2.2623696 10.70854945-3.46896672 12.06597121-1.35742176 1.35742176-4.82638849 8.74782914-7.8428813 16.28906116-3.01649281 7.54123201-9.3511277 20.81380035-14.17751619 29.41080487-12.66926978 22.4728714-13.72504228 21.56792356 27.14843526 22.17122213 31.52234981 0.30164928 32.27647302 0.30164928 39.81770503-3.46896674 5.5805117-2.71484352 8.74782914-5.42968706 11.46267267-10.1052509l3.61979137-6.48545953V287.57293523l-4.52473921-6.63628417c-2.56401887-3.46896672-7.23958273-7.8428813-10.55772483-9.50195234-6.03298562-3.01649281-9.20030306-3.01649281-491.68832737-3.31814209-267.11043796 0-487.91771137 0.45247391-490.63255488 1.0557725z" fill="#2c2c2c" p-id="755"></path><path d="M713.35089479 340.05991005c-27.90255844 1.96072033-56.25759083 11.01019874-80.8420072 25.64018886-52.18532555 31.52234981-83.8585 83.40602609-89.58983634 147.05402429-1.05577248 12.36762051 1.35742176 41.32595145 4.67556386 54.2968705 15.98741186 62.59222574 59.57573291 111.45940919 118.24651799 132.72568347 22.77452068 8.14453058 37.40451078 10.40690018 68.62521133 10.55772482 15.83658723 0.15082465 29.86327878 0.7541232 31.37152519 1.35742178 1.50824641 0.7541232 3.61979137 3.01649281 4.67556385 5.2788624 1.20659712 2.11154496 19.60720323 47.35893705 40.87347752 100.44921044 21.41709892 53.0902734 40.72265287 100.29838578 42.98502249 104.97394964 11.16102338 22.02039749 37.55533545 33.18142087 60.02820684 25.64018885 9.95442626-3.46896672 44.64409351-21.41709892 55.65429228-29.10915558 6.63628417-4.37391457 14.32834082-14.32834082 17.19400898-21.86957283 5.12803777-13.72504228 4.52473921-31.22070053-1.65907104-42.9850225-1.65907104-3.31814209-27.60090916-41.92924999-57.46418796-85.97004496-68.62521134-100.90168435-69.2285099-101.8066322-69.22850989-106.78384534 0-4.22308994 0.60329857-5.2788624 17.04318437-26.69596134 17.04318435-22.17122213 30.46657735-53.24109803 34.99131652-81.14365646 17.49565827-107.3871439-61.53645324-205.87563401-171.94008993-213.86933995-4.97721313-0.30164928-16.59071043-0.15082465-25.64018886 0.45247391z m41.02430217 44.64409353c28.20420773 5.73133634 50.07378058 17.19400899 70.13345774 36.49956297 20.05967716 19.30555395 32.5781223 40.57182823 40.72265288 69.07768525 2.86566816 10.10525091 3.31814209 15.3841133 3.31814208 35.29296582-0.15082465 27.90255844-2.56401887 38.91275719-14.02669155 62.44140109-14.47916546 30.01410342-36.65038759 51.43120233-68.62521133 66.66449102-19.45637859 9.20030306-33.03059622 11.91514658-58.97243435 11.76432194-25.64018885-0.15082465-38.15863401-3.01649281-60.32985613-14.17751619-19.30555395-9.50195234-30.76822662-18.09895683-43.28667176-32.5781223-23.67946853-27.45008453-36.04708902-59.42490828-36.19791367-94.11457556-0.30164928-41.17512681 14.6299901-76.61891727 44.1916196-104.67230037 19.75802788-18.85308003 41.92924999-30.76822662 67.11696493-36.19791367 14.02669155-3.01649281 41.62760073-3.01649281 55.95594156 0zM113.52130033 355.89649729c-9.50195234 5.2788624-13.12174371 19.45637859-7.23958272 29.10915557 4.07226528 6.63628417 9.50195234 9.65277699 27.14843525 14.62999013 8.29535522 2.41319424 16.4398858 5.5805117 18.09895684 7.08875809 2.86566816 2.71484352 3.01649281 4.67556385 3.01649281 62.13975181 0 54.5985198-0.15082465 59.42490828-2.56401892 61.53645321-1.50824641 1.20659712-9.20030306 4.07226528-17.04318434 6.33463491-7.8428813 2.41319424-16.74153507 5.5805117-19.75802787 7.08875809-17.19400899 8.59700449-15.08246403 33.78471942 3.16731744 39.21440649 4.67556385 1.50824641 8.29535522 0.7541232 30.91905125-6.18381027l25.64018887-7.69205664 26.54513668 7.84288129 26.69596133 7.8428813 7.08875811-3.46896673c16.59071043-7.99370593 16.28906115-31.06987589-0.60329856-38.30945865-3.01649281-1.20659712-11.46267267-4.07226528-19.00390468-6.33463488-7.39040737-2.11154496-15.08246403-5.2788624-16.89235972-7.08875809l-3.46896672-3.01649282V468.26085431c0-44.19161961 0.45247391-58.82160972 1.96072031-60.78233003 0.90494785-1.35742176 9.50195234-4.82638849 19.0039047-7.69205665 17.79730756-5.42968706 22.62369604-7.99370593 27.90255845-15.08246405 5.5805117-7.39040737 3.01649281-20.66297572-5.12803778-26.84678597-7.54123201-5.5805117-13.42339298-5.12803777-39.36523113 2.56401889l-24.13194243 7.23958273-23.9811178-6.93793345c-25.33853957-7.54123201-31.52234981-8.29535522-38.00780937-4.82638849z" fill="#2c2c2c" p-id="756"></path></svg>